<svg width="32" height="32" viewBox="0 0 32 32" fill="none" xmlns="http://www.w3.org/2000/svg">
  <defs>
    <linearGradient id="cloudGradient" x1="0%" y1="0%" x2="100%" y2="100%">
      <stop offset="0%" style="stop-color:#3b82f6;stop-opacity:1" />
      <stop offset="100%" style="stop-color:#1d4ed8;stop-opacity:1" />
    </linearGradient>
  </defs>
  <path d="M24 12c0-4.4-3.6-8-8-8s-8 3.6-8 8c-3.3 0-6 2.7-6 6s2.7 6 6 6h16c2.2 0 4-1.8 4-4s-1.8-4-4-4z" 
        fill="url(#cloudGradient)" 
        stroke="#1e40af" 
        stroke-width="1.5"/>
  <path d="M12 16c0-1.1.9-2 2-2s2 .9 2 2-.9 2-2 2-2-.9-2-2z" 
        fill="#ffffff" 
        opacity="0.8"/>
  <path d="M18 16c0-1.1.9-2 2-2s2 .9 2 2-.9 2-2 2-2-.9-2-2z" 
        fill="#ffffff" 
        opacity="0.6"/>
</svg>
